<?xml version="1.0" standalone="no"?>
<!DOCTYPE svg PUBLIC "-//W3C//DTD SVG 20010904//EN"
 "http://www.w3.org/TR/2001/REC-SVG-20010904/DTD/svg10.dtd">
<svg version="1.0" xmlns="http://www.w3.org/2000/svg"
 width="1280.000000pt" height="801.000000pt" viewBox="0 0 1280.000000 801.000000"
 preserveAspectRatio="xMidYMid meet">
<metadata>
Created by potrace 1.15, written by Peter Selinger 2001-2017
</metadata>
<g transform="translate(0.000000,801.000000) scale(0.100000,-0.100000)"
fill="brown" stroke="none">
<path d="M9365 7982 c-144 -52 -384 -164 -725 -335 l-335 -169 -55 13 -55 14
-7 73 c-10 95 -29 133 -81 163 -41 23 -47 24 -247 22 -113 -1 -369 -6 -570
-11 -401 -11 -440 -16 -505 -73 -35 -32 -50 -64 -60 -139 l-7 -46 -106 13
c-229 27 -410 57 -491 80 -48 13 -105 28 -129 33 -139 30 -1325 47 -3973 56
l-1989 7 0 -727 0 -728 2448 6 c1346 3 2532 9 2636 12 103 3 187 2 185 -3 -2
-4 -50 -84 -105 -178 -352 -590 -613 -1138 -694 -1456 -20 -76 -21 -118 -25
-952 -4 -848 -9 -1221 -40 -2836 -9 -426 -14 -775 -12 -777 1 -2 343 -6 759
-10 l756 -7 7 1289 c7 1215 -7 4044 -21 4289 l-6 100 188 160 c242 206 370
310 519 423 l119 91 28 -52 c47 -87 97 -124 269 -199 85 -37 237 -104 339
-149 415 -183 706 -285 878 -309 138 -19 204 13 217 105 8 48 2 136 -10 167
-6 15 2 14 57 -8 94 -37 235 -79 401 -119 l148 -36 45 21 c56 28 141 127 214
250 l53 90 250 0 250 0 -7 -402 c-3 -222 -11 -594 -16 -828 -5 -234 -14 -634
-20 -890 -6 -256 -17 -733 -25 -1060 -8 -327 -20 -779 -25 -1005 -6 -225 -15
-592 -21 -814 -8 -330 -8 -406 3 -412 7 -5 333 -9 724 -9 l712 0 7 1118 c5
637 3 1801 -3 2707 -5 875 -8 1592 -5 1595 2 2 348 6 768 8 l763 4 6 132 c7
177 28 1397 24 1401 -2 2 -553 7 -1223 11 l-1220 6 -180 88 c-293 143 -476
207 -620 216 -71 4 -89 2 -160 -24z"/>
</g>
</svg>
