<svg viewBox="15.351 38.902 1373.412 846" width="1373.412" height="846" xmlns="http://www.w3.org/2000/svg">>
  <defs>
    <linearGradient id="paint0_linear_0_1" x1="277" y1="480" x2="610.5" y2="264" gradientUnits="userSpaceOnUse" gradientTransform="matrix(2.677216, 0, 0, 2.677216, -343.39696, -400.161716)">
      <stop offset="0.1779" stop-color="#003572"></stop>
      <stop offset="0.9351" stop-color="#003572" stop-opacity="0.45"></stop>
    </linearGradient>
    <linearGradient id="paint1_linear_0_1" x1="141" y1="386" x2="474.5" y2="170" gradientUnits="userSpaceOnUse" gradientTransform="matrix(2.677216, 0, 0, 2.677216, -343.39696, -400.161716)">
      <stop offset="0.1779" stop-color="#96DA05"></stop>
      <stop offset="0.8979" stop-color="#C1F05B" stop-opacity="0.43"></stop>
    </linearGradient>
  </defs>
  <path d="M 593.63 290.56 L 1174.585 290.56 C 1292.873 290.56 1388.763 386.45 1388.763 504.737 L 1388.763 670.725 C 1388.763 789.011 1292.873 884.902 1174.585 884.902 L 593.63 884.902 C 475.343 884.902 379.453 789.011 379.453 670.725 L 379.453 504.737 C 379.453 386.45 475.343 290.56 593.63 290.56 Z" fill="white" style=""></path>
  <path d="M 593.63 290.56 L 1174.585 290.56 C 1292.873 290.56 1388.763 386.45 1388.763 504.737 L 1388.763 670.725 C 1388.763 789.011 1292.873 884.902 1174.585 884.902 L 593.63 884.902 C 475.343 884.902 379.453 789.011 379.453 670.725 L 379.453 504.737 C 379.453 386.45 475.343 290.56 593.63 290.56 Z" fill="url(#paint0_linear_0_1)" style=""></path>
  <path d="M 229.528 38.902 L 810.484 38.902 C 928.771 38.902 1024.662 134.792 1024.662 253.079 L 1024.662 419.066 C 1024.662 537.353 928.771 633.244 810.484 633.244 L 229.528 633.244 C 111.241 633.244 15.351 537.353 15.351 419.066 L 15.351 253.079 C 15.351 134.792 111.241 38.902 229.528 38.902 Z" fill="white" style=""></path>
  <path d="M 229.528 38.902 L 810.484 38.902 C 928.771 38.902 1024.662 134.792 1024.662 253.079 L 1024.662 419.066 C 1024.662 537.353 928.771 633.244 810.484 633.244 L 229.528 633.244 C 111.241 633.244 15.351 537.353 15.351 419.066 L 15.351 253.079 C 15.351 134.792 111.241 38.902 229.528 38.902 Z" fill="url(#paint1_linear_0_1)" style=""></path>
</svg>